# xmcd CD database file
#
# Track frame offsets:
#	150
#	12634
#	23202
#	35664
#	47422
#	59678
#	70522
#	83503
#	95626
#	108531
#	120284
#	133076
#
# Disc length: 1953 seconds
#
# Revision: 5
# Processed by: cddbd v1.5.2PL0 Copyright (c) Steve Scherf et al.
# Submitted via: CdAid (MTCDDB.DLL V2003.12.21)
#
DISCID=9c079f0c
DTITLE=Rolando Boldrin - Sambas Vocalizados CD 7
DYEAR=2004
DGENRE=Samba
TTITLE0=Boneca de Pano
TTITLE1=Na Aldeia
TTITLE2=Nãoo Manche o meu Panamá
TTITLE3=Maria Boa
TTITLE4=Cabelos Brancos
TTITLE5=Voce já foi à São Paulo?
TTITLE6=Chô... Chô...
TTITLE7=Meu Bairro Canta
TTITLE8=Vatapá
TTITLE9=E o Vento Levou
TTITLE10=Salve o Américo
TTITLE11=Brasil Pandeiro
EXTD=YEAR: 2004 ID3G:  17
EXTT0=
EXTT1=
EXTT2=
EXTT3=
EXTT4=
EXTT5=
EXTT6=
EXTT7=
EXTT8=
EXTT9=
EXTT10=
EXTT11=
PLAYORDER=
